{"title":"Dance Nation - Sunshine.avi","uid":8341169,"size":125194304,"categoryP":"video","categoryS":"music_videos","magnet":"?xt=urn:btih:1467838f0c9df38967c05e8d4cd2675d111aa893&amp;dn=Dance+Nation+-+Sunshine.avi&amp;tr=udp%3A%2F%2Ftracker.openbittorrent.com%3A80&amp;tr=udp%3A%2F%2Fopen.demonii.com%3A1337&amp;tr=udp%3A%2F%2Ftracker.coppersurfer.tk%3A6969&amp;tr=udp%3A%2F%2Fexodus.desync.com%3A6969","seeders":1,"leechers":0,"uploader":"TeamVazze.hu","files":1,"time":1365099013,"description":"General\nComplete name                  : D:DownloadsDance Nation - Sunshine.avi\nFormat                         : AVI\nFormat/Info                    : Audio Video Interleave\nFile size                      : 119 MiB\nDuration                       : 3mn 30s\nOverall bit rate               : 4 768 Kbps\nWriting application            : Lavf50.6.0\n\nVideo\nID                             : 0\nFormat                         : xvid\nCodec ID                       : xvid\nDuration                       : 3mn 30s\nBit rate                       : 4 596 Kbps\nWidth                          : 1 000 pixels\nHeight                         : 760 pixels\nDisplay aspect ratio           : 4:3\nFrame rate                     : 25.000 fps\nBits/(Pixel*Frame)             : 0.242\nStream size                    : 115 MiB (96%)\n\nAudio\nID                             : 1\nFormat                         : MPEG Audio\nFormat version                 : Version 1\nFormat profile                 : Layer 3\nMode                           : Joint stereo\nMode extension                 : MS Stereo\nCodec ID                       : 55\nCodec ID/Hint                  : MP3\nDuration                       : 3mn 29s\nBit rate mode                  : Constant\nBit rate                       : 160 Kbps\nChannel(s)                     : 2 channels\nSampling rate                  : 44.1 KHz\nCompression mode               : Lossy\nStream size                    : 4.00 MiB (3%)\nAlignment                      : Aligned on interleaves\nInterleave, duration           : 26 ms (0.65 video frame)\n\n","torrent":{"xt":"urn:btih:1467838f0c9df38967c05e8d4cd2675d111aa893","amp;dn":"Dance+Nation+-+Sunshine.avi","amp;tr":["udp%3A%2F%2Ftracker.openbittorrent.com%3A80","udp%3A%2F%2Fopen.demonii.com%3A1337","udp%3A%2F%2Ftracker.coppersurfer.tk%3A6969","udp%3A%2F%2Fexodus.desync.com%3A6969"],"infoHash":"1467838f0c9df38967c05e8d4cd2675d111aa893","infoHashBuffer":{"type":"Buffer","data":[20,103,131,143,12,157,243,137,103,192,94,141,76,210,103,93,17,26,168,147]},"announce":[],"urlList":[]}}